<svg width="194" height="77" viewBox="0 0 194 77" fill="none" xmlns="http://www.w3.org/2000/svg">
<path d="M38.8 40.1L54.2 2H77L38.8 76.7L0.7 2H23.5L38.8 40.1ZM83.0836 24.1V7.59999L119.584 0.599995V72H100.984V19.9L83.0836 24.1ZM131.418 72L162.118 40.6C164.051 38.4 165.718 36.4667 167.118 34.8C168.585 33.1333 169.685 31.5 170.418 29.9C171.218 28.2333 171.618 26.5 171.618 24.7C171.618 23.7 171.451 22.7333 171.118 21.8C170.785 20.8667 170.251 20.0667 169.518 19.4C168.785 18.6667 167.885 18.1 166.818 17.7C165.818 17.2333 164.585 17 163.118 17C161.251 17 159.585 17.5 158.118 18.5C156.651 19.4333 155.518 20.7667 154.718 22.5C153.985 24.2333 153.618 26.2 153.618 28.4H134.618C134.618 23.4 135.685 18.8 137.818 14.6C140.018 10.3333 143.285 6.93333 147.618 4.39999C152.018 1.8 157.418 0.499997 163.818 0.499997C168.285 0.499997 172.251 1.16666 175.718 2.49999C179.185 3.76666 182.085 5.5 184.418 7.7C186.818 9.9 188.618 12.3667 189.818 15.1C191.018 17.7667 191.618 20.5333 191.618 23.4C191.618 27.2 190.685 30.6333 188.818 33.7C186.951 36.7667 184.451 39.5667 181.318 42.1L166.818 54.3H193.718V72H131.418Z" fill="#283646"/>
</svg>
